<svg xmlns="http://www.w3.org/2000/svg" data-name="Layer 1" viewBox="0 0 512 512" id="sad-female"><defs><linearGradient id="b" x1="256.467" x2="252.329" y1="76.113" y2="209.501" gradientUnits="userSpaceOnUse"><stop offset="0" stop-color="#577fff"></stop><stop offset=".016" stop-color="#5c81fc"></stop><stop offset=".189" stop-color="#8b92dd"></stop><stop offset=".361" stop-color="#b2a0c4"></stop><stop offset=".53" stop-color="#d1abb0"></stop><stop offset=".695" stop-color="#e6b3a2"></stop><stop offset=".854" stop-color="#f4b79a"></stop><stop offset="1" stop-color="#f8b997"></stop></linearGradient><clipPath id="a"><rect width="429.12" height="285.18" x="41.44" y="152.803" fill="none"></rect></clipPath></defs><rect width="429.12" height="285.18" x="41.44" y="152.803" fill="#ffec7d"></rect><g clip-path="url(#a)"><circle cx="85.11" cy="214.894" r="18.873" fill="none" stroke="#fff" stroke-miterlimit="10" stroke-width="3"></circle><circle cx="103.983" cy="234.892" r="18.873" fill="none" stroke="#fff" stroke-miterlimit="10" stroke-width="3"></circle><circle cx="348.716" cy="239.232" r="33.991" fill="none" stroke="#fff" stroke-miterlimit="10" stroke-width="3"></circle><circle cx="389.647" cy="260.171" r="33.991" fill="none" stroke="#fff" stroke-miterlimit="10" stroke-width="3"></circle><circle cx="332.391" cy="175.902" r="48.272" fill="none" stroke="#fff" stroke-miterlimit="10" stroke-width="3"></circle><circle cx="103.983" cy="414.885" r="48.272" fill="none" stroke="#fff" stroke-miterlimit="10" stroke-width="3"></circle><circle cx="408.017" cy="404.375" r="48.272" fill="none" stroke="#fff" stroke-miterlimit="10" stroke-width="3"></circle></g><path fill="#350313" d="M200.16363,192.97093s-1.06823,86.59824-17.47986,98.95295S324.855,326.53082,324.855,326.53082s-12.78091-60.89167-14.91951-135.33127S200.16363,192.97093,200.16363,192.97093Z"></path><path fill="#f8b997" d="M438.21,437.98337H75.99c14.89014-59.35,23.75-92.94,23.75-92.94,4.89014-29.35,27.52-38.84,27.52-38.84l25.72-9.56,34.27-10.66,12.59009-3.92a27.58478,27.58478,0,0,0,8.48-4.35,27.90929,27.90929,0,0,0,10.45-15.94h.01c.11987-.53.23-1.07.32007-1.61.02-.16.0498-.32.08008-.49.02978-.16.0498-.33.06982-.49l.03-.24c.06006-.39.11011-.78.13989-1.18.04-.49.07007-.99.09009-1.49.01-.32.02-.64.02-.96v-37.5h70.1001v37.5a27.98577,27.98577,0,0,0,10.51977,21.87,5.97962,5.97962,0,0,0,.49024.39,27.971,27.971,0,0,0,8.67993,4.49l8.57983,2.67,51.63013,16.07,17.36011,5.4c8,3.7,14.10986,9.92,18.62988,16.3a79.57581,79.57581,0,0,1,10.95,22.54h.11011S423.55005,378.19334,438.21,437.98337Z"></path><path fill="#e59876" d="M246.12213,257.69951c25.00088-4.35788,43.50554-33.32309,43.50554-33.32309s-24.79416-2.04144-40.3006-6.55922H219.5285v37.49432a27.99316,27.99316,0,0,1-.7552,6.42606l-.0007.0392S221.12094,262.05739,246.12213,257.69951Z"></path><path fill="url(#b)" d="M309.463,151.01405a10.15418,10.15418,0,0,0-4.34474.16537c-5.59241-34.93762-27.02575-60.88184-52.22541-60.50686-25.26988.376-45.97012,27.09148-50.4433,62.32517a10.34238,10.34238,0,0,0-5.305-.3123c-7.78,1.66739-12.0793,12.386-9.60287,23.94047,2.38974,11.15026,10.21525,18.97679,17.75149,18.01424,7.81831,27.33477,18.33772,44.97754,50.259,47.274,23.76271,1.70952,41.668-21.22653,48.24122-48.67648,7.13967-.19012,14.0352-7.97072,15.9807-18.57947C321.90568,163.0352,317.28921,152.44921,309.463,151.01405Z"></path><ellipse cx="310.857" cy="171.411" fill="#e59876" rx="12.451" ry="4.998" transform="rotate(-83.571 310.857 171.411)"></ellipse><ellipse cx="197.255" cy="173.102" fill="#e59876" rx="4.998" ry="12.451" transform="rotate(-8.135 197.255 173.102)"></ellipse><path fill="#e59876" d="M202.44967 152.99771c.66553 3.49878 1.0415 6.96973 1.3728 10.43686.313 3.466.5332 6.92484.72266 10.37854.19116 3.45319.30127 6.90747.43652 10.36093l.31152 10.4661a42.08642 42.08642 0 01-3.09838-10.155 78.21712 78.21712 0 01-1.21-10.48593 93.022 93.022 0 01.04346-10.52426A64.15533 64.15533 0 01202.44967 152.99771zM305.41793 151.46549a64.12885 64.12885 0 011.73242 10.43026A93.01144 93.01144 0 01307.507 172.414a78.2274 78.2274 0 01-.89746 10.51734 42.09172 42.09172 0 01-2.79492 10.2427l.00024-10.47073c.03223-3.45593.03955-6.912.12793-10.36932.08643-3.45783.20362-6.92166.41358-10.39548C304.58443 158.46311 304.85689 154.98249 305.41793 151.46549z"></path><path fill="#38101b" d="M232.12375,165.34472c4.58919,0,4.59679-7.13213,0-7.13213-4.58918,0-4.59678,7.13213,0,7.13213Z"></path><path fill="#38101b" d="M238.186 161.77866a19.80584 19.80584 0 00-4.04322-2.08014 5.43447 5.43447 0 00-3.76709.05954 7.33736 7.33736 0 00-1.75048.94815c-.28589.19369-.55762.41605-.83155.641-.14062.10892-.26343.2367-.39966.35278-.15478.14255-.32739.29929-.49878.438a6.04647 6.04647 0 01-2.3767 1.18189 4.43421 4.43421 0 01-1.31885.1015 1.76544 1.76544 0 01-1.17822-.525 2.79477 2.79477 0 002.05126-.65531 6.58457 6.58457 0 001.51246-1.43655c.10888-.13687.20239-.26975.30908-.42087.13354-.16962.26123-.34616.40625-.50766a8.66365 8.66365 0 01.92114-.93481 7.427 7.427 0 012.31323-1.40616 6.14767 6.14767 0 015.3855.47061A8.36206 8.36206 0 01238.186 161.77866zM278.60222 165.34472c4.58919 0 4.59679-7.13213 0-7.13213-4.58918 0-4.59678 7.13213 0 7.13213z"></path><path fill="#38101b" d="M272.54,161.77866a8.363,8.363,0,0,1,3.26538-3.773,6.14827,6.14827,0,0,1,5.38574-.47061,7.42689,7.42689,0,0,1,2.31324,1.40616,8.66551,8.66551,0,0,1,.92114.93481c.145.1615.2727.338.40625.50766.10669.15112.20019.284.30908.42087a6.58453,6.58453,0,0,0,1.51245,1.43655,2.7948,2.7948,0,0,0,2.05127.65531,1.766,1.766,0,0,1-1.17822.525,4.43421,4.43421,0,0,1-1.31885-.1015,6.04658,6.04658,0,0,1-2.37671-1.18189c-.17139-.1387-.344-.29544-.49878-.438-.13623-.11608-.259-.24386-.39966-.35278-.27392-.225-.54565-.44733-.83154-.641a7.33742,7.33742,0,0,0-1.75049-.94815,5.43447,5.43447,0,0,0-3.76709-.05954A19.806,19.806,0,0,0,272.54,161.77866Z"></path><path fill="#350313" d="M203.74794,182.5458s7.24284-90.49393,71.71728-72.23568c0,0,30.75943,25.44891,28.76243,78.22666,0,0,1.77066-18.68494,4.08882-32.46563,0,0,6.22908-33.43523-5.74916-52.03731-9.18428-14.26308-24.81981-17.1171-26.24623-17.1171,0,0-23.08623-17.4125-49.65434.74284A56.22994,56.22994,0,0,0,204.014,121.12271a149.85567,149.85567,0,0,0-3.85036,34.99672Z"></path><path fill="none" stroke="#350313" stroke-miterlimit="10" stroke-width="1.189" d="M279.09536,110.31012s12.40208,25.949,15.63748,39.77635,8.38011,35.28228,1.42885,64.2207,8.0309,33.0906,8.0309,33.0906"></path><path fill="#38101b" d="M213.32345 153.30966a37.2625 37.2625 0 017.64282-3.40139c1.29883-.43225 2.60889-.80457 3.92554-1.14038l1.93237-.46726q.88293-.20316 1.74561-.47607a34.15186 34.15186 0 006.718-2.87552c.54956-.30118 1.08789-.62894 1.6355-.96271.56787-.36288 1.16553-.73288 1.762-1.08264a28.88065 28.88065 0 013.80469-1.88831 28.88063 28.88063 0 01-2.13379 3.67249c-.39428.57583-.783 1.13663-1.20971 1.695a16.63689 16.63689 0 01-1.46973 1.66241 18.51606 18.51606 0 01-7.66528 4.53775c-.72535.20191-1.45459.392-2.19629.52078-.76514.12442-1.36744.20966-2.064.29111-1.34961.15936-2.70581.28223-4.07324.34512A37.26143 37.26143 0 01213.32345 153.30966zM296.77584 153.11161a37.26388 37.26388 0 01-8.34814.54248c-1.36817-.04453-2.72583-.14917-4.0774-.29044-.69751-.07208-1.301-.14923-2.06787-.26337-.74316-.11877-1.4751-.29913-2.20312-.49127a18.51592 18.51592 0 01-7.72535-4.43445 16.65655 16.65655 0 01-1.49194-1.64251c-.43432-.55265-.83032-1.10816-1.23218-1.67862a28.86465 28.86465 0 01-2.1831-3.64353 28.8627 28.8627 0 013.82959 1.83707c.60132.3417 1.20361.70364 1.77661 1.0589.552.32638 1.09473.64688 1.64819.94067a34.14809 34.14809 0 006.75586 2.78507q.86608.25986 1.752.45263l1.93847.44129c1.32105.31808 2.636.67276 3.94043 1.08758A37.26267 37.26267 0 01296.77584 153.11161z"></path><path fill="#d7645d" d="M278.17809,213.915S266.1971,200,253.45616,202.83283s-18.10953,15.85966-18.10953,15.85966Z"></path><path fill="#e59876" d="M267.297,189.09971a20.74445,20.74445,0,0,1-12.67025,6.06779c.14921.02487.29842.0373.44763.04974h-.89525c.14921-.01244.29842-.02487.44762-.04974a20.681,20.681,0,0,1-12.5086-5.89371Z"></path><path fill="#92dc50" d="M438.21,437.98337H75.99c14.89014-59.35,23.75-92.94,23.75-92.94,4.89014-29.35,27.52-38.84,27.52-38.84l25.72-9.56,34.27-10.66,12.59009-3.92a27.58478,27.58478,0,0,0,8.48-4.35,27.90929,27.90929,0,0,0,10.45-15.94h.01c.11987-.53.23-1.07.32007-1.61.02-.16.0498-.32.08008-.49.02978-.16.0498-.33.06982-.49l.03-.24c.06006-.39.11011-.78.13989-1.18.04-.49.07007-.99.09009-1.49.01-.32.02-.64.02-.96h70.1001a27.98577,27.98577,0,0,0,10.51977,21.87,5.97962,5.97962,0,0,0,.49024.39,27.971,27.971,0,0,0,8.67993,4.49l8.57983,2.67,51.63013,16.07,17.36011,5.4c8,3.7,14.10986,9.92,18.62988,16.3a79.57581,79.57581,0,0,1,10.95,22.54h.11011S423.55005,378.19334,438.21,437.98337Z"></path><path fill="#58b80a" d="M285.73025 255.31586c.37232 3.59449.5896 7.168.76416 10.738l.45923 10.69141c.03662 1.78125.13013 3.5581.19727 5.33642l.21777 5.3335c.17676 3.5564.35522 7.103.64526 10.70508a50.87171 50.87171 0 01-2.5415-10.522 99.93623 99.93623 0 01-.957-10.762c-.11695-3.59643-.11353-7.19263.0813-10.78345A85.69771 85.69771 0 01285.73025 255.31586zM273.66373 255.31586c.37231 3.59449.5896 7.168.76416 10.738l.45923 10.69141c.03662 1.78125.13012 3.5581.19726 5.33642l.21778 5.3335c.17675 3.5564.35522 7.103.64526 10.70508a50.87237 50.87237 0 01-2.54151-10.522 99.94133 99.94133 0 01-.957-10.762c-.11694-3.59643-.11352-7.19263.0813-10.78345A85.69773 85.69773 0 01273.66373 255.31586zM262.31124 255.31586c.37231 3.59449.58959 7.168.76416 10.738l.45922 10.69141c.03663 1.78125.13013 3.5581.19727 5.33642l.21777 5.3335c.17676 3.5564.35523 7.103.64527 10.70508a50.87174 50.87174 0 01-2.54151-10.522 99.94133 99.94133 0 01-.957-10.762c-.11694-3.59643-.11352-7.19263.0813-10.78345A85.69586 85.69586 0 01262.31124 255.31586zM226.71438 255.31592a85.73619 85.73619 0 011.13379 10.73706c.19458 3.59057.198 7.187.08106 10.78344a99.94174 99.94174 0 01-.957 10.762 50.8718 50.8718 0 01-2.54151 10.522c.29-3.60205.46851-7.14893.64527-10.70508l.21777-5.33349c.06714-1.77833.16064-3.55518.19727-5.33643l.45922-10.69141C226.12478 262.48364 226.34207 258.9104 226.71438 255.31592zM238.781 255.31592a85.78451 85.78451 0 011.13355 10.73706c.19482 3.59057.19824 7.187.0813 10.78344a100.003 100.003 0 01-.957 10.762 50.8718 50.8718 0 01-2.54151 10.522c.29-3.60205.46826-7.14893.645-10.70508l.218-5.33349c.06714-1.77833.16064-3.55518.197-5.33643l.45923-10.69141C238.19144 262.48364 238.40848 258.9104 238.781 255.31592zM250.13357 255.31592a85.78451 85.78451 0 011.13355 10.73706c.19482 3.59057.19824 7.187.0813 10.78344a100.06435 100.06435 0 01-.957 10.762 50.88777 50.88777 0 01-2.54151 10.522c.29-3.60205.46826-7.14893.645-10.70508l.218-5.33349c.06689-1.77833.1604-3.55518.197-5.33643l.45923-10.69141C249.544 262.48364 249.761 258.9104 250.13357 255.31592z"></path><polygon fill="#58b80a" points="135.12 397.343 134.33 437.983 132.86 437.983 135.12 397.343"></polygon><polygon fill="#58b80a" points="379.14 437.983 377.67 437.983 376.88 397.343 379.14 437.983"></polygon></svg>