<svg width="145" height="109" viewBox="0 0 145 109" fill="none" xmlns="http://www.w3.org/2000/svg">
<path fill-rule="evenodd" clip-rule="evenodd" d="M75.9273 4.62867C5.9514 2.81218 -0.729202 53.8744 13.9618 54.2893C42.3521 55.0909 44.2202 70.5703 62.9291 87.7129C93.1467 115.403 128.706 116.984 126.584 44.798C125.692 14.5017 104.321 5.36552 75.9273 4.62867Z" fill="#F5F2FD"/>
<path fill-rule="evenodd" clip-rule="evenodd" d="M27.7239 61.6887C6.94597 57.3008 2.94803 66.1333 7.30892 67.0606C15.7363 68.8525 14.5881 71.622 20.4605 76.0521C29.0306 82.5176 38.9183 79.9861 41.238 71.8812C42.7829 66.4813 36.1548 63.4691 27.7239 61.6887Z" fill="#F5F2FD"/>
<path d="M35.0081 81.2938C36.3361 80.9005 37.5261 80.5174 38.7615 79.9896C40.369 79.3429 41.7831 78.2631 43.3529 77.5396C44.848 76.8041 46.48 76.5089 48.0372 75.9572C48.8906 75.6934 49.812 75.2126 50.7639 74.9268C50.4244 74.8284 50.0704 74.7223 49.7203 74.6277C49.5026 74.5762 49.281 74.5132 49.0739 74.458C48.7641 74.6169 48.4466 74.7594 48.1225 74.8851C47.4082 75.1767 46.6756 75.4492 45.9263 75.6375C44.2018 76.0427 42.4462 76.356 40.659 76.4362C38.7748 76.4735 36.9867 75.9237 35.191 75.8397C34.5951 75.8193 33.9842 75.8942 33.4248 75.9123C33.329 75.9077 33.206 75.8226 33.217 75.7158C33.2978 75.5714 33.4949 75.5273 33.6267 75.4292C34.9002 74.6307 36.2973 74.0585 37.7971 73.9645C39.6779 73.8125 41.5363 74.2217 43.3096 73.7864C43.7787 73.6969 44.2416 73.5759 44.6951 73.4241C44.0337 73.1054 43.3683 72.7752 42.7268 72.4108C41.6453 71.7907 40.6475 70.9995 39.6231 70.2691C38.1343 69.1759 36.557 68.2042 35.2005 66.9098C35.0005 66.7363 34.5145 66.2396 35.0513 66.2939C35.7448 66.4983 36.4262 66.7714 37.1291 66.934C41.2904 67.544 45.1313 69.5666 48.0362 72.6776C48.4463 73.124 48.8392 73.5893 49.1662 74.1037C49.1895 74.1327 49.2083 74.165 49.2222 74.1996C49.8976 74.3849 50.5555 74.5892 51.228 74.8009C51.2529 74.805 51.2673 74.8127 51.2921 74.8167C51.5425 74.8953 51.7928 74.9737 52.0327 75.0559C51.8542 74.7719 51.6641 74.4534 51.5139 74.288C51.0467 73.7075 50.5991 73.4287 50.0566 72.9393C48.7379 71.7216 47.5807 70.215 46.9447 68.4725C46.3563 66.9057 45.7104 65.5527 44.7798 64.1589C44.3361 62.8112 49.4391 67.9746 49.6834 68.2096C50.8387 69.2923 51.5877 70.7762 52.1988 72.2704C52.4877 73.0555 52.7197 73.9509 53.0684 74.599C53.2203 74.944 53.4591 75.2323 53.6388 75.5546C53.6395 75.5725 53.6376 75.5905 53.6332 75.608C54.1667 75.7918 54.6974 76.0027 55.2242 76.2019C55.2386 76.2096 55.2491 76.2059 55.2635 76.2137C55.5072 76.3074 55.7508 76.4011 55.9881 76.51C55.9765 76.4756 55.9753 76.4374 55.9637 76.4029C55.916 76.2095 55.845 76.023 55.7524 75.8475C54.6752 74.0554 53.3031 72.4707 52.1393 70.7351C51.5241 69.8212 50.9117 68.8806 50.5124 67.8387C50.2207 67.0803 50.0784 66.1017 49.7691 65.4653C49.3865 64.7519 48.9276 64.0913 48.4621 63.4459C48.3983 63.327 47.9412 62.8459 47.8231 62.5663C47.7636 62.1114 48.3797 62.575 48.5553 62.6412C50.1497 63.5941 51.5599 64.908 52.6933 66.4488C53.4476 67.3906 54.178 68.3666 54.6859 69.4857C55.6178 71.4065 55.9857 73.7843 56.8434 75.5898C57.0993 76.1143 57.4122 76.6075 57.7763 77.06C57.8532 77.1485 57.8306 77.2209 57.7674 77.2432C58.4461 77.543 59.1075 77.8617 59.7729 78.1919C59.6034 77.1328 58.976 76.0431 58.3928 75.0152C57.7054 73.8181 57.105 72.5643 56.5151 71.3072C56.1242 70.4296 55.761 69.5293 55.57 68.5807C55.3211 67.1125 55.2889 65.6576 54.9581 64.2957C54.8485 63.8553 54.7067 63.424 54.5338 63.0054C54.4678 62.8101 54.3309 62.6142 54.3779 62.4047C54.4243 62.2982 54.5673 62.3376 54.6472 62.3994C54.8444 62.5996 54.9731 62.8756 55.1532 63.0947C55.7207 63.8326 56.4783 64.8891 57.057 65.7643C58.2453 67.6071 59.328 69.5901 59.8319 71.7782C60.206 73.4079 60.2025 75.2098 60.5167 76.732C60.62 77.3514 60.7167 77.986 61.0027 78.5535C61.0105 78.5764 61.0366 78.6187 61.0327 78.6072C61.056 78.6761 61.1291 78.7531 61.1065 78.8254C61.1039 78.8312 61.1001 78.8362 61.0952 78.8401C61.0904 78.8441 61.0848 78.8468 61.0788 78.8481C61.9679 79.3177 62.8372 79.8328 63.6998 80.3633C63.6886 80.2257 63.7091 80.077 63.673 79.9355C63.6507 79.6604 63.5281 79.2279 63.4144 78.8566C63.1115 77.9607 62.652 77.1588 62.3087 76.2129C61.5663 74.4694 61.5166 72.5448 61.3484 70.6879C61.1851 68.6363 61.3486 66.6104 61.3665 64.5719C61.3587 64.2282 61.3332 63.8852 61.2901 63.5442L61.2785 63.5098C61.2027 63.1651 61.1439 62.8167 61.1024 62.466C61.0767 62.3207 61.2452 62.2611 61.3433 62.3421C61.4873 62.4197 61.468 62.6065 61.5041 62.7481C61.5579 63.012 61.5869 63.2719 61.6158 63.5315C61.8338 64.5604 62.1712 65.6628 62.4985 66.6659C63.1168 68.2861 63.9667 69.8243 64.3679 71.5343C64.722 72.9654 64.6175 74.4685 64.4044 75.8946C64.2668 76.6379 64.0987 77.1862 64.15 77.9655C64.1504 78.6985 64.2011 79.3365 64.3687 79.9717C64.4475 80.2397 64.5434 80.4886 64.6432 80.7491C64.6485 80.765 64.6498 80.782 64.6472 80.7986C64.6446 80.8152 64.6381 80.831 64.6283 80.8444C64.6169 80.8549 64.6036 80.8629 64.5891 80.868C64.5747 80.8731 64.5594 80.8753 64.5441 80.8743C65.1526 81.2491 65.7569 81.631 66.3569 82.0198C66.2249 81.8047 66.1126 81.5775 66.0215 81.3412C65.6217 80.4024 65.4993 79.3782 65.3704 78.3692C65.2019 77.1041 65.1675 75.8171 65.4073 74.5748C65.5857 73.534 65.9358 72.5482 66.1679 71.527C66.4227 70.329 66.5506 69.1064 66.5494 67.8804C66.5468 67.8138 66.5401 67.7475 66.5294 67.6817C66.4922 67.5019 66.4589 67.3337 66.4361 67.1617C66.7011 66.9005 66.8166 67.207 66.864 67.7304C67.1021 68.958 67.5482 70.382 67.6678 71.6773C67.8017 73.5721 67.5888 75.4868 67.1926 77.3121C66.9789 78.3526 66.4857 79.299 66.469 80.2953C66.4583 80.8908 66.6136 81.3502 66.7982 81.9665C66.8148 82.0507 66.8957 82.1506 66.831 82.2378L66.8099 82.2453C66.8195 82.2682 66.8239 82.2931 66.8228 82.318C69.5591 84.1396 72.1788 86.2083 74.4973 88.6411C74.7832 88.9642 75.0836 89.2951 75.3522 89.6371C75.4093 89.7713 75.2515 89.8272 75.1507 89.7728C74.8082 89.4568 74.5372 89.0384 74.2014 88.7071C71.5836 85.9817 68.6145 83.7152 65.426 81.7065C64.4095 82.5683 63.6463 83.7262 62.6665 84.6265C60.7637 86.3168 58.2156 86.7951 55.9853 87.8297C55.7604 87.8965 55.4022 88.1263 55.2409 87.8233C55.2344 87.8032 55.2339 87.7815 55.2396 87.7611C55.2454 87.7407 55.257 87.7226 55.273 87.7091C55.4153 87.6072 55.5692 87.5398 55.7192 87.4609C56.6063 87.018 57.2629 86.451 57.9781 85.7088C58.2289 85.4399 58.4836 85.1825 58.7421 84.9365C58.3772 85.1816 57.994 85.4073 57.6109 85.6331C56.4282 86.3866 54.958 86.8818 53.7496 87.2456C52.5448 87.7168 51.433 88.407 50.4679 89.283C50.2453 89.4261 50.0405 89.6916 49.7791 89.7199C49.3648 89.6095 49.7208 89.3033 49.8752 89.1328C51.1668 87.8649 52.2821 86.3893 53.6988 85.2828C54.521 84.6827 55.299 84.2656 56.0347 83.6191C56.832 83.0151 57.5107 82.2344 58.3522 81.6918C59.4347 81.0253 60.7102 80.895 61.7656 80.3924C62.0696 80.2461 62.295 80.0763 62.5203 79.9064C61.7269 79.4414 60.9414 78.9995 60.1281 78.5803L59.5584 79.0908C58.5226 80.1394 57.3212 80.9768 56.0781 81.7259C55.1103 82.3132 54.036 82.6552 53.1201 83.327C51.1164 84.7187 49.477 87.0487 47.3459 88.4469C46.8073 88.805 46.2943 89.2053 45.748 89.5404C45.5243 89.6455 45.2094 89.8985 44.9926 89.6408C44.9055 89.453 45.1397 89.3443 45.2322 89.2344C45.5422 88.9316 45.8627 88.6251 46.1362 88.2838C47.5405 86.5129 48.809 84.5843 50.5424 83.1598C52.3777 81.5835 54.3083 80.1149 56.4639 79.0681C57.2602 78.6703 58.0647 78.1923 58.9747 78.1657C59.0788 78.1663 59.1828 78.1596 59.2859 78.1454C58.5198 77.761 57.7298 77.4106 56.9227 77.0791C56.675 76.9741 56.4313 76.8802 56.1837 76.775C55.7259 77.2331 55.4404 77.8873 54.8989 78.2721C53.1001 79.6426 51.1074 80.6831 49.0173 81.4363C45.733 82.6643 42.5048 84.2325 38.973 84.5192C38.6828 84.532 38.3815 84.6516 38.0918 84.5613C37.6835 84.2943 38.4062 84.1669 38.5668 84.0842C39.1626 83.8602 39.5846 83.7493 40.2004 83.4797C40.877 83.1113 41.5237 82.6893 42.1848 82.275C43.914 81.1864 45.6381 80.0481 47.522 79.2778C49.4911 78.5158 51.4062 78.0817 53.2739 77.1241C53.8331 76.8616 54.3741 76.58 54.9035 76.2638C53.9534 75.893 53.0111 75.5451 52.0451 75.2314C52.013 75.3457 51.8275 75.4243 51.7522 75.5153C51.0785 76.1013 50.2484 76.4339 49.4887 76.8703C48.2983 77.6008 47.1755 78.4616 45.9213 79.0733C43.9649 79.9079 42.0683 80.6056 39.9589 81.0571C38.6353 81.3589 37.2868 81.6567 35.9149 81.641C35.6874 81.7348 34.6466 81.6534 35.0081 81.2938ZM63.194 80.401C63.1874 80.4162 63.1769 80.4199 63.1702 80.4352C63.1635 80.4504 62.9798 80.7084 63.0446 80.6212C62.7159 81.2521 62.2642 81.798 61.8047 82.3209C61.7228 82.4271 61.6371 82.5218 61.5512 82.6166C62.3499 82.0944 63.2269 81.7098 64.1472 81.4782C64.3509 81.4188 64.5126 81.3744 64.6705 81.3184C64.1862 81.0013 63.6954 80.6992 63.194 80.401Z" fill="url(#paint0_linear_19_616)"/>
<path d="M48.0709 52.3164C49.3734 53.2651 50.5633 54.1023 51.8946 54.9163C53.5972 55.9923 55.4715 56.722 57.2019 57.7338C58.8841 58.6777 60.3464 59.9235 61.9405 60.9975C62.786 61.6025 63.8428 62.1726 64.7794 62.851C64.5929 62.524 64.4012 62.1816 64.204 61.8474C64.076 61.6426 63.9535 61.4297 63.8362 61.2322C63.4802 61.0398 63.1353 60.8311 62.7959 60.6143C62.0363 60.1379 61.2767 59.638 60.5665 59.0885C58.9528 57.8117 57.383 56.4697 55.961 55.0022C54.4967 53.4351 53.5383 51.6996 52.2311 50.1551C51.7916 49.6458 51.2705 49.1644 50.8306 48.7022C50.761 48.6197 50.7298 48.4803 50.817 48.4442C50.985 48.4508 51.1679 48.5977 51.3405 48.6669C52.9002 49.3979 54.3875 50.3288 55.6005 51.5489C57.1467 53.0647 58.2622 54.7995 59.9354 56.1045C60.3116 56.4291 60.8121 56.8018 61.2591 57.1148C60.9896 56.4238 60.7256 55.7247 60.505 55.0311C60.1375 53.8594 59.96 52.6853 59.7169 51.5147C59.3875 49.8 58.901 48.0625 58.8208 46.3736C58.7962 46.1319 58.7917 45.513 59.1611 45.9868C59.5392 46.6562 59.8575 47.3445 60.2737 48.0041C62.9313 51.6546 64.4451 55.7903 64.3571 59.6049C64.3407 60.1388 64.2973 60.6664 64.1675 61.1592C64.1642 61.1901 64.1547 61.2199 64.1395 61.247C64.5179 61.8929 64.8691 62.5324 65.2258 63.1873C65.2419 63.2099 65.2473 63.2253 65.2631 63.2479C65.3962 63.4916 65.5292 63.7353 65.6516 63.9716C65.7249 63.7011 65.8147 63.4064 65.8221 63.2098C65.8938 62.5709 65.7578 62.0766 65.7051 61.4131C65.5971 59.7884 65.8252 58.1769 66.6246 56.903C67.3307 55.7438 67.8357 54.627 68.1535 53.2536C68.8086 52.3089 68.8937 58.7872 68.9069 59.0922C68.9897 60.5224 68.467 61.7813 67.8315 62.9288C67.4731 63.5048 66.99 64.0796 66.7781 64.6476C66.6397 64.9217 66.6092 65.2447 66.5086 65.5323C66.4868 65.5414 66.4813 65.5495 66.4651 65.5504C66.7362 66.0766 66.9856 66.6119 67.2405 67.1389C67.2457 67.1543 67.2565 67.1616 67.2619 67.177C67.3787 67.4215 67.4955 67.6661 67.596 67.9115C67.6126 67.8871 67.6398 67.8699 67.6564 67.8455C67.7626 67.7232 67.8466 67.5834 67.9047 67.4323C68.4045 65.7669 68.5263 63.9417 68.9182 62.2273C69.1227 61.3225 69.349 60.4088 69.8126 59.6312C70.1492 59.0643 70.7621 58.5295 70.9953 57.9995C71.2295 57.3754 71.3665 56.7095 71.4873 56.0445C71.5263 55.9405 71.5323 55.3522 71.6485 55.1343C71.9384 54.8913 72.0666 55.6056 72.1516 55.7813C72.6651 57.5252 72.7719 59.2676 72.5005 60.8735C72.3813 61.9069 72.2189 62.9348 71.7812 63.8366C71.076 65.4347 69.6037 66.7528 68.9267 68.2396C68.7326 68.6875 68.607 69.1621 68.5543 69.6473C68.5478 69.7495 68.477 69.7612 68.4127 69.7176C68.7092 70.415 68.9786 71.1059 69.2426 71.805C69.894 71.2133 70.2188 70.2237 70.532 69.2974C70.8902 68.2119 71.3564 67.1755 71.8334 66.1463C72.1823 65.4455 72.569 64.7583 73.1225 64.1953C74.0152 63.3632 75.0629 62.7186 75.8147 61.8628C76.0553 61.5844 76.2657 61.2814 76.4422 60.9587C76.5358 60.8204 76.5758 60.6223 76.7662 60.5728C76.8801 60.5667 76.9601 60.7035 76.9754 60.7967C76.9782 61.0474 76.8729 61.2726 76.8486 61.5169C76.7375 62.3068 76.5365 63.3916 76.3324 64.2493C75.8802 66.0297 75.244 67.7808 74.0153 69.1328C73.0993 70.1387 71.7682 70.9004 70.8857 71.8103C70.508 72.16 70.1139 72.5105 69.9137 72.9917C69.9026 73.0079 69.8914 73.0478 69.8969 73.0396C69.8638 73.0884 69.8629 73.1826 69.7923 73.1942C69.7784 73.1943 69.765 73.1895 69.7544 73.1806C70.0864 74.1269 70.3694 75.0758 70.6362 76.0256C70.7291 75.9579 70.8543 75.9119 70.9312 75.8215C71.117 75.686 71.3423 75.3995 71.5293 75.1464C71.9588 74.5117 72.1995 73.7854 72.635 73.0954C73.354 71.7317 74.7349 70.8731 75.9755 69.9439C77.3633 68.9361 78.9814 68.2137 80.4978 67.3636C80.7423 67.2132 80.9761 67.0461 81.1973 66.8633L81.2138 66.8389C81.4116 66.6275 81.6238 66.4301 81.849 66.248C81.9366 66.1649 82.109 66.281 82.124 66.3979C82.1767 66.5518 82.0241 66.6149 81.9473 66.7053C81.7924 66.8577 81.6279 67.0001 81.4548 67.1317C80.8626 67.7516 80.3073 68.5028 79.8174 69.2034C79.0946 70.4105 78.6087 71.7772 77.6542 72.84C76.8693 73.7447 75.6814 74.2949 74.4677 74.7211C73.8149 74.921 73.2825 75.0122 72.7472 75.3863C72.2071 75.6977 71.7754 76.011 71.435 76.4214C71.3029 76.601 71.1815 76.7882 71.0713 76.9819C71.0616 76.9936 71.0489 77.0025 71.0345 77.0074C71.0201 77.0123 71.0046 77.0132 70.9898 77.0098C70.9561 76.9991 70.9262 76.9789 70.9036 76.9518C71.0906 77.6194 71.2699 78.2891 71.4415 78.9609C71.4984 78.7613 71.5806 78.5698 71.6861 78.3911C72.0733 77.6568 72.735 77.1194 73.3805 76.5828C74.1846 75.9044 75.1071 75.3294 76.2059 75.0035C77.1091 74.7117 78.1027 74.5874 79.0326 74.3491C80.0743 74.0693 81.0755 73.6569 82.0116 73.1221C82.0581 73.0921 82.102 73.0582 82.1429 73.0209C82.2417 72.916 82.3459 72.8161 82.455 72.7218C82.8498 72.8338 82.7118 73.0607 82.3621 73.3226C81.6388 74.0437 80.9291 75.0225 80.0656 75.673C78.7709 76.5896 77.1971 77.2233 75.5494 77.665C74.6193 77.9269 73.5457 77.9144 72.7985 78.3232C72.3513 78.5668 72.1311 78.8923 71.8176 79.309C71.7683 79.3587 71.7563 79.4691 71.6426 79.4517L71.6212 79.4372C71.6113 79.4553 71.596 79.4699 71.5774 79.4788C72.3212 82.5507 72.7938 85.6295 72.7686 88.6097C72.7484 88.9871 72.7335 89.3799 72.6863 89.7508C72.631 89.8557 72.4694 89.7469 72.4326 89.6391C72.4044 89.2173 72.5062 88.812 72.4943 88.3894C72.5072 85.0335 71.9137 81.5772 70.963 78.046C69.5527 77.5579 68.1171 77.4081 66.7062 76.967C64.0092 76.0858 61.7135 74.1481 59.2499 72.7133C59.0293 72.5528 58.5867 72.3494 58.687 72.0853C58.7004 72.0706 58.7183 72.0606 58.7378 72.0568C58.7574 72.0529 58.7777 72.0554 58.7957 72.0639C58.9793 72.1402 59.1463 72.2409 59.319 72.3336C60.3219 72.8909 61.2406 73.2019 62.3331 73.4878C62.7226 73.5844 63.1065 73.689 63.485 73.8018C63.0261 73.5993 62.5675 73.3732 62.1089 73.1471C60.6516 72.4733 59.1654 71.4483 57.9758 70.5875C56.7296 69.7846 55.3833 69.1483 53.9713 68.6949C53.6961 68.5687 53.3442 68.5093 53.124 68.3017C52.8894 67.9068 53.3866 68.0759 53.63 68.1333C55.5496 68.6802 57.4878 68.991 59.3839 69.7117C60.4532 70.1478 61.3539 70.6244 62.3916 70.9681C63.4448 71.3815 64.5378 71.6204 65.5796 72.0972C66.8963 72.7238 67.965 73.74 69.1404 74.4134C69.4404 74.5792 69.7525 74.7222 70.0741 74.8411C69.8119 73.9773 69.5386 73.1298 69.2275 72.2686L68.4168 72.0067C66.8539 71.5815 65.3205 70.9276 63.8206 70.2011C62.6496 69.6372 61.5782 68.8798 60.3847 68.3955C57.8308 67.3028 54.863 66.9143 52.2072 65.7173C51.5324 65.4167 50.8463 65.1558 50.1826 64.8389C49.9346 64.6956 49.5078 64.5383 49.5325 64.2469C49.6046 64.0941 49.8633 64.2447 50.0148 64.2757C50.4744 64.4077 50.9448 64.5469 51.4049 64.6318C53.7812 65.06 56.1702 65.3072 58.5422 66.159C61.1037 67.0319 63.6585 68.0306 66.0738 69.3974C66.9743 69.8975 67.9402 70.3705 68.6537 71.1237C68.7334 71.2123 68.8176 71.2967 68.9059 71.3766C68.6051 70.5698 68.261 69.7574 67.8898 68.9387C67.7785 68.6861 67.6618 68.4414 67.5505 68.1888C66.8638 67.9985 66.1637 68.0363 65.4672 67.7447C63.0854 66.8151 60.7985 65.5824 58.6495 64.1464C55.2398 61.9083 51.622 59.8617 48.7174 57.0162C48.4867 56.7778 48.1688 56.5755 48.0144 56.2938C47.8998 55.8375 48.5448 56.3906 48.7282 56.4904C49.3477 56.8959 49.7512 57.2034 50.4196 57.6063C51.2071 58.0184 52.0114 58.3826 52.8209 58.7622C54.942 59.7529 57.0959 60.7184 59.1003 61.9741C61.1636 63.3051 62.944 64.7297 65.0741 65.8924C65.6941 66.2509 66.3144 66.5858 66.951 66.8964C66.4999 65.9408 66.0377 65.0016 65.5323 64.0568C65.4236 64.0782 65.2242 63.9559 65.0997 63.9312C64.154 63.6139 63.2758 63.0577 62.3746 62.6047C60.9284 61.9146 59.4375 61.3366 58.0303 60.5425C55.9232 59.2531 53.9625 57.9558 52.0211 56.3752C50.7894 55.3914 49.5416 54.3848 48.5068 53.2256C48.2637 53.0742 47.5301 52.1653 48.0709 52.3164ZM70.2227 75.6171C70.2064 75.618 70.1956 75.6107 70.1793 75.6116C70.163 75.6125 69.8327 75.5676 69.9464 75.585C69.2306 75.5764 68.4838 75.4288 67.7479 75.2648C67.6072 75.241 67.472 75.2091 67.3367 75.1772C68.3393 75.6318 69.2853 76.2016 70.1554 76.875C70.3546 77.021 70.5107 77.138 70.6722 77.2469C70.5368 76.7055 70.3851 76.1649 70.2227 75.6171Z" fill="url(#paint1_linear_19_616)"/>
<path d="M126.968 81.93C127.178 81.0096 126.805 79.9531 126.115 79.3189L125.91 79.1507C126.077 79.0376 126.27 78.9225 126.408 78.7625C126.663 78.4936 126.77 78.1262 126.776 77.7669C126.767 77.502 126.664 77.2484 126.484 77.0497C126.329 76.8773 126.115 76.747 125.925 76.6146C125.622 76.3434 125.227 76.1789 124.843 76.2732C124.651 75.6836 124.138 75.3312 123.286 75.4525C122.622 75.5456 121.968 76.0336 121.979 76.725C121.95 77.1107 122.14 77.5398 122.015 77.8471C121.871 78.2301 121.321 78.4621 121.115 77.9972C120.943 77.6282 121.098 77.232 121.385 76.8987C121.963 76.2564 122.773 75.6686 122.484 74.7039C122.008 73.1985 119.431 72.8843 118.727 74.3781C118.695 74.4388 118.671 74.5031 118.655 74.5696C118.642 74.5584 118.642 74.5584 118.616 74.5605C118.62 74.4325 118.604 74.3047 118.57 74.1811C118.48 73.8796 118.33 73.6202 118.306 73.3502C118.271 73.0935 118.356 72.9133 118.517 72.7267C118.82 72.4291 119.364 72.1235 119.458 71.6087C119.502 71.3947 119.453 71.1268 119.266 71.0191C119.092 70.9225 118.79 70.948 118.748 71.1865C118.734 71.3113 118.832 71.4143 118.937 71.4549C118.989 71.4752 119.088 71.4422 119.081 71.3685C119.065 71.3328 119.013 71.3125 118.999 71.3013L118.972 71.2789C118.895 71.1246 119.014 71.0404 119.162 71.1391C119.385 71.3676 119.262 71.8355 118.97 72.1198C118.809 72.3064 118.507 72.468 118.325 72.7059C118.189 72.8905 118.083 73.122 118.116 73.3541C118.144 73.6733 118.367 74.0378 118.402 74.2944C118.406 74.3644 118.417 74.4339 118.434 74.502C118.304 74.4532 118.169 74.419 118.031 74.3999C117.407 74.366 116.751 74.6935 116.445 75.2387C116.276 75.5151 116.157 75.818 116.093 76.1339C115.773 76.0991 115.41 76.0061 115.073 76.0716C115.048 76.0737 115.011 76.0892 114.986 76.0913C115.03 76.0134 115.062 75.9488 115.106 75.871C116.007 73.8784 116.488 71.7234 117.428 69.7399C117.522 69.5217 117.631 69.3148 117.737 69.0832C117.764 69.1056 117.805 69.1393 117.808 69.1638C118.031 69.3922 118.247 69.6831 118.562 69.8049C118.723 69.8603 118.897 69.8739 119.065 69.8445C119.234 69.8151 119.392 69.7437 119.523 69.6372C119.689 69.4996 119.788 69.3305 119.926 69.1706C120.11 68.9573 120.374 68.7866 120.628 68.6539C121.006 68.4859 121.451 68.3495 121.672 67.9846C121.84 67.7355 121.928 67.4437 121.98 67.1673C122.761 67.3981 123.617 67.4619 124.287 67.0097C124.339 67.03 124.405 67.0615 124.407 67.0861C124.722 67.2832 125.055 67.4496 125.403 67.5828C126.64 68.0966 128.022 67.5225 128.351 66.2212C128.367 66.121 128.395 66.0073 128.412 65.907C129.006 65.8939 129.269 65.4266 129.436 64.8808C129.511 64.5777 129.496 64.27 129.557 63.9556C129.581 63.7929 129.627 63.6035 129.672 63.3895C130.068 63.7146 130.521 64.3812 131.097 64.0112C131.987 63.3301 132.067 61.9386 131.407 61.0792C131.541 61.0385 131.678 61.0063 131.817 60.9828C131.941 60.9476 132.389 60.9964 132.625 60.9394C133.163 60.8569 133.099 60.2811 132.878 59.9411C132.503 59.2931 131.929 58.7753 131.238 58.4598C131.199 58.4507 131.172 58.4283 131.133 58.4192C131.165 58.3547 131.195 58.2656 131.216 58.2144C131.263 58.0259 131.245 57.8277 131.166 57.6498C130.703 56.7244 129.339 56.9261 128.382 57.1429C128.426 56.8909 128.412 56.6327 128.342 56.3864C128.272 56.1401 128.147 55.9119 127.976 55.7181C127.418 55.1469 126.499 54.6434 125.724 55.055C125.402 54.8596 124.997 54.869 124.64 54.9857C124.361 55.0721 124.098 55.2029 123.862 55.3728C123.814 55.4016 123.78 55.4416 123.732 55.4704C123.926 54.947 124.095 54.4258 124.304 53.9137C124.356 53.9072 124.404 53.881 124.437 53.8407C124.633 53.4779 124.866 53.3964 125.206 53.2194C125.815 52.9453 126.301 52.8426 126.993 52.6358C127.673 52.4424 128.337 52.2132 129 51.9595C129.266 52.2461 129.563 52.4436 129.825 52.6812C130.048 52.9096 130.126 53.2245 130.255 53.5351C130.459 53.9754 130.752 54.4205 131.214 54.6165C131.543 54.7608 131.909 54.8074 132.265 54.7503C132.29 54.7482 132.302 54.7349 132.316 54.7461C132.319 54.7725 132.33 54.7974 132.347 54.8176C132.547 55.2088 132.822 55.5938 133.231 55.7693C133.589 55.9493 134.172 55.9495 134.47 56.0111C134.961 56.1179 135.28 56.4249 135.789 56.5922C136.235 56.7524 136.765 56.7321 137.174 56.4753C137.548 56.2583 137.746 55.7839 137.609 55.3752C137.554 55.2214 137.472 55.0777 137.368 54.9504C137.513 54.845 137.647 54.7261 137.768 54.5952C138.129 54.2309 138.209 53.7048 137.867 53.2885C137.726 53.1273 137.462 52.8652 137.399 52.7222C137.135 52.324 137.306 51.8272 137.213 51.3407C137.049 50.6373 136.493 50.0907 135.833 49.8002C136.11 49.3441 135.885 48.8189 135.659 48.4054C135.532 48.1193 135.544 47.8338 135.683 47.5377C135.847 47.2396 135.978 47.0059 135.766 46.7641C135.863 46.7065 135.945 46.6377 136.053 46.5668C136.388 46.3407 136.614 45.8888 136.454 45.5067C136.356 45.2676 136.151 45.0995 135.971 44.9292C135.762 44.6939 135.611 44.4146 135.531 44.1132C135.452 43.7983 135.408 43.4435 135.153 43.1435C134.509 42.456 133.154 42.1871 132.489 42.985C132.181 43.3696 132.199 43.9988 131.715 44.126C131.664 44.1343 131.611 44.1302 131.562 44.1142C131.949 43.6118 132.16 42.9881 132.689 42.6713C133.086 42.4277 133.634 42.1712 133.95 41.7242C134.115 41.4505 134.195 41.0605 134.029 40.7654C133.882 40.5305 133.605 40.4178 133.352 40.2785L133.311 40.2448C133.458 40.1 133.606 39.9556 133.754 39.8117L133.768 39.8229C133.892 39.907 134.044 39.9418 134.193 39.92C134.342 39.8982 134.476 39.8216 134.569 39.7059C134.684 39.5725 134.742 39.5058 134.861 39.4217C134.889 39.3997 134.924 39.388 134.96 39.3886C135.136 39.3737 135.28 39.4234 135.495 39.4177C136.14 39.4003 136.285 38.7451 136.026 38.26C135.935 38.0946 135.798 37.9824 135.65 37.8837C135.754 37.7636 135.871 37.6549 135.974 37.5348C136.002 37.5573 136.054 37.5775 136.081 37.6C136.405 37.8199 136.509 38.2687 136.598 38.7063C136.686 39.1193 136.928 39.5687 137.371 39.7044C137.972 39.901 138.63 39.5983 139.007 39.1336C139.258 38.8154 139.404 38.4571 139.768 38.278C139.888 38.1937 140.284 38.0861 140.477 37.9709C140.697 37.8508 140.865 37.6564 140.948 37.4242C140.991 37.3078 141.01 37.1844 141.005 37.0608L141.032 37.0833C141.208 37.2781 141.325 37.5162 141.372 37.7717C141.41 38.0529 141.283 38.3358 141.16 38.5315C140.951 38.883 140.512 39.3652 140.826 39.7591C140.996 39.9672 141.273 39.9439 141.516 39.9605C141.529 39.9717 141.516 39.9605 141.49 39.9627C141.781 39.9505 142.025 40.1277 142.056 40.3353C142.085 40.5183 141.845 40.5262 141.669 40.405L141.614 40.3602C141.578 40.3757 141.69 40.3539 141.701 40.3405C141.772 40.285 141.69 40.2178 141.615 40.2241C141.5 40.2214 141.342 40.2966 141.417 40.4263C141.506 40.5672 141.689 40.6259 141.842 40.6377C142.327 40.671 142.365 40.2475 142.025 39.9917C141.765 39.7787 141.328 39.8527 141.148 39.8184C140.796 39.7121 140.896 39.2709 141.076 39.0083C141.38 38.5746 141.725 38.0385 141.487 37.5022C141.392 37.2876 141.281 37.0373 141.055 36.9204C141.061 36.9124 141.068 36.9057 141.076 36.9007C141.084 36.8957 141.094 36.8926 141.103 36.8916C141.271 36.7785 141.342 36.7231 141.514 36.6591C141.892 36.4912 142.552 36.7817 143.152 36.6816C143.767 36.6173 144.335 36.013 144.166 35.3964C144.042 34.9989 143.687 34.7074 143.315 34.5162C143.78 34.1925 144.403 34.2018 144.896 33.7645C145.246 33.4135 144.62 33.219 144.369 33.1042C144.17 33.0097 143.753 32.7358 143.423 32.7389C143.384 32.7298 143.348 32.7452 143.309 32.7361L143.32 32.7228C143.346 32.5846 143.356 32.4107 143.256 32.2831C142.84 31.7371 141.375 31.9473 140.718 32.4107L140.73 32.3974C140.915 32.0603 140.971 31.6696 140.886 31.2961C140.751 30.9399 140.501 30.6358 140.174 30.4293C139.847 30.2229 139.461 30.1252 139.072 30.1509L139.047 30.153C139.174 30.0545 139.296 29.9493 139.412 29.8378C139.61 29.6656 139.826 29.5147 140.057 29.3877C140.843 28.9628 141.78 28.7972 142.491 28.2425C142.657 28.1049 142.885 27.8137 142.677 27.621C142.502 27.4998 142.266 27.5568 142.064 27.5738C141.652 27.6456 141.158 27.6501 140.779 27.5215C140.324 27.3992 139.884 27.1519 139.394 27.2057C139.343 27.1636 139.299 27.1128 139.267 27.0556C138.771 26.4669 137.94 26.401 137.202 26.3643C136.692 26.3331 136.276 26.22 135.876 26.0063C135.011 25.5476 134.205 24.7501 133.164 24.739C132.932 24.7387 132.704 24.7938 132.499 24.8995C132.294 25.0051 132.118 25.1582 131.988 25.3452C131.673 25.7922 131.771 26.4641 132.332 26.6516C133.009 26.8418 133.339 25.9978 133.898 25.8641C133.96 25.8465 134.148 25.8183 134.239 25.8477C134.36 25.8896 134.473 25.9511 134.572 26.0298C134.709 26.1419 134.823 26.2807 134.969 26.3549C134.934 26.3949 134.914 26.4461 134.973 26.5401C135.171 26.7707 135.514 26.7788 135.767 26.9182C136.084 27.0645 136.458 27.4163 136.731 27.7765C136.974 28.0898 137.176 28.6418 137.4 29.0307C137.584 29.3599 137.839 29.6464 138.147 29.8705C138.205 29.9137 138.267 29.95 138.334 29.9784C138.333 30.2505 138.318 30.5114 138.315 30.7588C138.301 30.7476 138.276 30.7498 138.262 30.7386C138.145 30.6996 138.034 30.6466 137.931 30.581C137.609 30.3856 137.329 30.0877 136.954 30.0081C136.735 29.9648 136.497 29.9973 136.318 30.1236C136.15 30.2367 136.003 30.4346 135.995 30.6331C135.95 30.9831 136.169 31.2985 136.359 31.5917C136.45 31.7571 136.516 31.9247 136.488 32.0383C136.451 32.1281 136.38 32.2005 136.29 32.2405C136.141 32.2778 135.972 32.2302 135.728 32.189C135.678 32.178 135.626 32.1741 135.575 32.1772L135.566 32.0791C135.545 31.5616 135.156 31.1739 134.625 31.194C133.518 31.1516 132.707 32.8767 134.122 33.1035C134.328 33.1356 134.559 33.1656 134.76 33.1486C134.74 33.2808 134.726 33.414 134.72 33.5477C134.643 33.5862 134.575 33.6381 134.518 33.7007C134.332 33.8896 134.317 34.1503 134.339 34.3959C134.369 34.7484 134.539 35.0754 134.813 35.3079C135.127 35.5657 135.496 35.5717 135.723 35.8493C135.821 35.9523 135.852 36.1599 135.826 36.298C135.78 36.4874 135.696 36.6925 135.689 36.8908C135.679 37.019 135.695 37.1478 135.735 37.2702L135.39 37.6702L135.349 37.6366C135.086 37.4648 134.833 37.2798 134.59 37.0824C134.107 36.641 133.8 36.1846 133.533 35.6013C133.469 35.4583 133.406 35.3153 133.356 35.1835C133.88 34.2243 132.888 33.9123 132.943 32.9556C132.953 32.7542 132.977 32.5538 133.016 32.3559C133.164 32.1667 133.254 31.9404 133.276 31.7034C133.288 31.4179 133.214 31.152 133.307 30.9095C133.385 30.6555 133.542 30.4197 133.518 30.1497C133.508 29.7549 133.035 29.7082 132.728 29.8207C132.135 29.9944 131.652 30.4185 131.328 30.9034C131.116 31.2304 130.97 31.5889 130.941 31.9746C130.943 31.9992 130.932 32.0125 130.945 32.0237C130.8 31.9964 130.66 31.95 130.527 31.8859C130.502 31.888 130.272 31.722 130.158 31.7193C129.983 31.7027 129.808 31.7436 129.661 31.8354C129.293 32.1261 129.184 32.6052 128.992 33.017C128.671 33.6872 128.354 34.4062 128.461 35.1762C128.467 35.2499 128.485 35.3102 128.492 35.3838C128.293 35.3737 128.094 35.3947 127.901 35.446C127.631 35.543 127.363 35.6646 127.179 35.8779C127.102 36.0005 127.06 36.1402 127.055 36.2836C127.05 36.4269 127.082 36.5692 127.15 36.6965C127.348 37.0632 127.665 37.2095 127.918 37.485C128.25 37.8031 128.236 38.3607 128.527 38.7813C128.732 39.0855 128.984 39.3609 129.306 39.5563C129.333 39.5787 129.386 39.5991 129.413 39.6215C129.39 39.6481 129.381 39.686 129.358 39.7127C129.296 39.8664 129.224 40.0579 129.162 40.0755C128.951 40.1303 128.6 39.888 128.25 39.9422C127.7 40.0381 127.275 40.5315 127.247 41.0779C127.252 41.5597 127.582 41.9894 127.789 42.3181C127.854 42.4139 127.906 42.5176 127.943 42.6266C127.208 42.775 126.525 43.0801 125.96 43.5729C125.608 43.8995 125.213 44.3036 125.195 44.8121C125.229 45.3409 125.811 45.6133 126.077 46.036C126.195 46.2239 126.237 46.5542 126.17 46.7948C126.076 47.2605 125.915 47.7111 125.693 48.1333C125.446 48.6364 125.123 49.1458 125.162 49.7239C125.177 49.9138 125.232 50.0986 125.324 50.2669C125.34 50.3026 125.369 50.3496 125.385 50.3853C125.097 50.9909 124.819 51.583 124.558 52.2109C124.119 53.2619 123.743 54.3199 123.357 55.3912C123.327 55.3948 123.297 55.3932 123.268 55.3863C122.467 55.3673 121.403 55.9517 121.635 56.8472C121.677 57.085 121.766 57.3126 121.897 57.5173C121.911 57.5285 121.926 57.5643 121.94 57.5755C121.737 57.7129 121.555 57.8782 121.4 58.0662C121.041 58.5911 120.981 59.3381 121.296 59.8926C121.366 59.9982 121.442 60.0992 121.526 60.1947L121.581 60.2395C121.426 60.6359 121.271 61.0323 121.102 61.4175C120.396 61.3164 120.197 61.7908 119.788 62.1838C119.59 62.3859 119.368 62.4541 119.208 62.3687C118.982 62.2518 118.958 61.9817 119.046 61.8258C119.253 61.5857 119.715 61.5096 120.057 61.3571C120.339 61.2468 120.612 61.0383 120.739 60.7555C120.862 60.4248 120.878 60.0654 120.787 59.7252C120.697 59.2876 120.146 58.2213 119.583 58.3059C119.532 58.1038 119.424 57.9199 119.27 57.7757C118.773 57.3231 117.959 57.1568 117.356 57.5045C117.187 57.593 117.019 57.706 116.918 57.8506C116.806 58.0373 116.738 58.2457 116.718 58.4609C116.705 58.4968 116.704 58.536 116.716 58.5724C116.635 58.5692 116.555 58.5719 116.475 58.5804C116.114 58.648 115.63 58.9112 115.371 58.9951C115.062 59.083 114.723 59.1239 114.461 59.3191C113.821 59.8183 113.778 60.6255 114.155 61.2986C114.216 61.4171 114.289 61.5222 114.348 61.6161C113.922 61.8129 113.509 62.0208 113.083 62.2176C112.259 62.658 111.843 63.2495 112.185 63.9626C111.492 64.4414 111.005 65.3851 111.455 66.1633C111.893 66.8187 112.798 67.0143 113.274 67.5182C113.484 67.7355 113.682 67.966 113.947 68.0921C114.166 68.1792 114.404 68.2101 114.639 68.182C114.667 68.2044 114.696 68.2514 114.724 68.2738C114.983 68.4868 115.349 68.4683 115.659 68.3804C116.131 68.2664 116.455 67.7815 116.831 67.589C116.941 67.5426 117.108 67.5656 117.215 67.6308C117.428 67.7365 117.631 67.8801 117.864 67.9346C117.573 68.5157 117.284 69.1211 117.021 69.7246C116.092 71.6947 115.637 73.8474 114.708 75.8177C114.412 76.4857 113.982 77.066 113.506 77.6997C113.477 77.5167 113.423 77.3358 113.295 77.1858C113.04 76.8858 112.719 76.6904 112.551 76.3707C112.31 75.9459 112.352 75.4108 112.038 75.0169C111.496 74.3454 110.406 74.4994 109.834 75.0544C109.515 75.3163 109.418 75.646 109.398 75.9939C108.791 75.5876 108.161 75.208 107.432 75.1335C106.817 75.0618 106.038 75.2883 105.786 75.8783C105.69 76.3686 106.045 76.7961 106.247 77.2119C106.397 77.4713 106.471 77.737 106.534 78.0161L106.509 78.0182C105.98 78.0628 105.438 78.0963 104.903 78.0673C104.37 78.0628 103.762 77.9286 103.267 78.2053C102.927 78.3824 102.747 78.7809 102.917 79.1251C103.291 79.9096 104.367 80.1774 105.193 80.194C106.08 80.1933 106.776 80.1717 107.476 80.768C107.697 80.9719 108.038 81.3882 108.328 81.6482C108.674 81.9775 109.057 82.2914 109.506 82.5007C109.554 82.514 109.599 82.5353 109.639 82.5638C108.997 83.335 108.358 84.1309 107.771 84.9471C107.692 85.0649 107.589 85.185 107.524 85.314C107.506 85.3898 107.599 85.4438 107.677 85.4619C107.908 85.4919 107.989 85.2626 108.09 85.1179C108.371 84.7107 108.691 84.313 108.999 83.9284C110.025 82.6301 111.108 81.4011 112.12 80.0916C112.993 78.9175 113.97 77.7841 114.721 76.5335C114.897 76.6548 115.093 76.7247 115.257 76.8593C115.501 77.0365 115.817 77.4549 115.823 77.8009C115.894 78.3141 115.752 78.8579 115.533 79.2473C115.311 79.612 115.05 79.8072 114.668 79.7902C114.592 79.7966 114.417 79.6754 114.472 79.5842C114.53 79.5175 114.566 79.502 114.681 79.5047C114.745 79.5117 114.8 79.4205 114.734 79.389C114.668 79.3575 114.606 79.3751 114.542 79.3681C114.255 79.4294 114.14 79.6989 114.432 79.8474C114.685 79.9868 115.02 79.8967 115.263 79.7773C115.777 79.4248 115.999 78.7878 116.036 78.2037C116.069 77.929 116.026 77.6507 115.913 77.3973C115.799 77.144 115.618 76.9248 115.388 76.7622C115.226 76.6522 115.067 76.5668 114.893 76.4701C115.23 76.4046 115.595 76.5222 116.016 76.5485C116.105 76.5533 116.192 76.5336 116.281 76.5385L116.259 76.5651C116.213 76.6185 116.067 76.8408 116.042 76.9791C115.828 77.7143 116.687 77.9632 117.272 77.988C117.885 78.0352 118.449 77.8145 118.949 78.0196C119.14 78.0829 119.317 78.1814 119.469 78.3096C119.288 78.4114 119.093 78.5021 118.912 78.6039C118.33 78.9003 117.752 79.2459 117.422 79.8178C117.024 80.4696 116.814 81.2539 117.019 81.9909C117.127 82.4888 117.426 83.0075 117.952 83.2105C118.368 83.3238 118.647 83.1889 118.838 82.9131C118.727 83.8004 118.896 84.8495 119.547 85.4746C120.019 85.9294 120.751 86.325 121.409 86.0222C121.712 85.8888 121.967 85.669 122.139 85.3918C122.338 85.0536 122.399 84.7394 122.695 84.5042C122.91 84.3623 123.128 84.3812 123.386 84.2974C123.545 84.2358 123.686 84.1397 123.801 84.0165C123.915 83.8932 123.999 83.7461 124.046 83.5864C124.083 83.4349 124.109 83.2967 124.133 83.1339C124.327 83.1793 124.535 83.236 124.779 83.2772C125.271 83.3841 125.641 82.9819 126.04 82.7628C126.279 82.5941 126.842 82.3734 126.968 81.93ZM131.34 51.4652L131.312 51.4428C131.248 51.4358 131.205 51.3776 131.173 51.3061C131.068 51.1272 130.991 50.9335 130.945 50.7319C130.873 50.3546 130.912 49.931 131.137 49.6152C131.363 49.2994 131.711 49.2207 132.058 49.4138C132.297 49.542 132.738 49.6531 132.668 50.0053C132.477 50.4171 132.016 50.6539 131.769 51.0209C131.695 51.1054 131.631 51.1979 131.578 51.2966C131.511 51.4011 131.472 51.5284 131.34 51.4652H131.34ZM132.018 40.3909C131.87 40.1561 131.484 39.9537 131.336 39.855C131.17 39.6959 131.054 39.5326 131 39.3517C131.553 39.0081 132.304 38.8954 132.818 38.9757C133.101 39.0259 133.263 39.272 133.422 39.4935C133.013 39.8866 132.606 40.3042 132.211 40.7085C132.164 40.5934 132.099 40.4863 132.018 40.3909H132.018ZM133.57 40.5938C134.001 40.8789 133.87 41.5453 133.457 41.8893C133.119 42.2269 132.478 42.4294 132.096 42.8449C131.853 43.1004 131.728 43.4077 131.525 43.6968C131.481 43.7747 131.378 43.8947 131.323 43.986C131.271 43.9481 131.229 43.9002 131.198 43.8454C131.167 43.7905 131.148 43.7298 131.142 43.6673C131.137 43.6049 131.145 43.542 131.165 43.4827C131.186 43.4234 131.22 43.3691 131.264 43.3232C131.321 43.2524 131.394 43.1954 131.477 43.1568C131.432 43.2348 131.405 43.3215 131.398 43.4108C131.385 43.4466 131.384 43.4858 131.396 43.5223C131.439 43.5805 131.59 43.5677 131.583 43.4941C131.603 43.2822 131.732 43.0241 131.943 42.8331C132.194 42.5152 133.048 42.2824 132.932 41.6863C132.885 41.443 132.742 41.2572 132.564 41.1115L132.454 41.0218C132.675 40.793 132.896 40.5642 133.105 40.3487C133.251 40.4229 133.433 40.4817 133.57 40.5936L133.57 40.5938ZM140.317 32.7415C140.153 33.1758 140.205 33.7649 139.831 33.9819C139.721 34.0283 139.701 33.9435 139.734 33.7428C139.751 33.5065 139.891 33.2349 140.075 33.0216C140.142 32.917 140.236 32.8349 140.317 32.7415ZM130.912 35.5013C131.024 35.4795 131.216 35.5003 131.229 35.6476C131.249 35.8685 131.243 36.0916 131.146 36.2852C131.102 36.3631 131.074 36.4768 130.971 36.4607L130.958 36.4495C130.948 36.4874 130.887 36.505 130.848 36.4959C130.759 36.491 130.738 36.4062 130.72 36.3459C130.653 36.1538 130.58 35.9126 130.677 35.7189C130.687 35.663 130.716 35.6116 130.758 35.5724C130.8 35.5333 130.854 35.5083 130.912 35.5013ZM127.127 59.0047C127.027 59.3099 126.696 59.7211 126.394 59.7466C126.046 59.6894 126.248 59.1036 126.476 58.8123C126.621 58.5899 126.956 58.3638 127.196 58.2198C127.195 58.4919 127.194 58.7641 127.127 59.0047ZM121.886 60.399C122.167 60.5608 122.515 60.6181 122.83 60.6038C122.81 61.0877 122.815 61.5695 123.044 62.0077C123.343 62.5265 123.987 62.9173 124.454 62.3216C124.523 62.2416 124.578 62.1504 124.636 62.0837C124.894 62.1361 125.159 62.1261 125.356 62.196C125.808 62.4299 125.709 63.0316 125.23 63.2082C124.886 63.3361 124.513 63.4171 124.246 63.6992C124.085 63.8859 123.966 64.1064 123.791 64.2817L123.733 64.3484L123.731 64.3238C123.746 64.063 123.956 63.7114 123.928 63.3923C123.841 62.7071 123.168 62.2694 122.598 61.9836C122.28 61.8373 122.067 61.571 121.726 61.4513C121.649 61.4332 121.557 61.4038 121.479 61.3856C121.625 61.027 121.761 60.7063 121.886 60.399ZM111.012 80.8901C110.917 80.9951 110.83 81.1058 110.749 81.2214L110.699 81.2256C110.562 81.2496 110.436 81.2602 110.358 81.242C110.191 81.2191 109.924 81.0685 109.911 80.9212C109.881 80.5776 110.323 80.4165 110.652 80.4135C110.728 80.4071 110.977 80.4974 111.057 80.5401C111.109 80.5604 111.15 80.594 111.217 80.6256C111.155 80.7186 111.087 80.8071 111.012 80.8902V80.8901Z" fill="url(#paint2_linear_19_616)"/>
<path fill-rule="evenodd" clip-rule="evenodd" d="M95.9474 6.0444C95.8793 5.93922 95.7366 5.81405 95.5755 5.68221C95.0981 5.29497 94.4161 4.8838 94.351 4.83986C93.3157 4.15941 92.2277 3.53516 91.183 2.86243C90.7305 2.56921 90.2841 2.2672 89.8532 1.94707C89.7137 1.84134 88.7838 1.20987 88.5823 0.759007C88.5321 0.653217 88.5179 0.533979 88.542 0.419438C88.5589 0.358103 88.5886 0.301023 88.6292 0.251956C88.6698 0.202889 88.7204 0.162945 88.7776 0.13475C88.9945 0.0170041 89.2953 -0.017334 89.6238 0.00770924C90.2407 0.0544 90.9722 0.301733 91.3473 0.402119C92.5924 0.740899 93.8186 1.1454 95.0206 1.61391C96.2295 2.07887 97.4136 2.59128 98.5791 3.11702C101.896 4.61482 105.163 6.23057 108.325 7.98589C111.53 9.7668 114.627 11.692 117.55 13.7872C118.886 14.7428 120.358 15.7633 121.626 16.9127C122.519 17.7235 123.309 18.5991 123.883 19.5589C123.904 19.5938 123.917 19.6324 123.923 19.6726C123.929 19.7127 123.926 19.7536 123.916 19.7928C123.906 19.8321 123.888 19.869 123.864 19.9014C123.84 19.9339 123.809 19.9612 123.774 19.9819C123.739 20.0025 123.7 20.0161 123.66 20.0218C123.62 20.0275 123.579 20.0253 123.539 20.0152C123.5 20.0052 123.463 19.9875 123.43 19.9631C123.398 19.9388 123.37 19.9083 123.35 19.8734C122.81 18.96 122.063 18.1277 121.22 17.3538C119.977 16.2126 118.529 15.1987 117.218 14.2482C114.32 12.1499 111.251 10.219 108.074 8.43251C104.934 6.66815 101.685 5.04492 98.3869 3.53728C97.2338 3.01094 96.059 2.49735 94.8594 2.0312C93.6728 1.56419 92.4622 1.16038 91.2326 0.821487C90.9195 0.737104 90.3522 0.542657 89.8191 0.462518C89.4967 0.413748 89.1898 0.39885 88.9852 0.510143C88.9263 0.541596 88.9728 0.592191 89.01 0.650215C89.0961 0.776457 89.1982 0.891042 89.3138 0.991101C89.63 1.2819 90.0237 1.54532 90.1074 1.60895C90.529 1.92428 90.9691 2.22204 91.4124 2.51097C92.457 3.18663 93.542 3.81275 94.5773 4.49563C94.6641 4.55263 95.7242 5.19845 96.1582 5.65385C96.2466 5.74069 96.3172 5.84391 96.3659 5.95773C96.431 6.13774 96.3845 6.27837 96.2202 6.37077C95.904 6.54416 95.346 6.54603 94.7044 6.43843C93.5389 6.24216 92.0789 5.71642 91.5364 5.57677C88.9945 4.92616 86.4527 4.27176 83.8798 3.71763C82.1781 3.35034 80.4608 3.02758 78.7249 2.77749C72.6152 1.90157 66.0436 1.68531 59.5557 2.21397C53.043 2.74502 46.614 4.02706 40.8298 6.13689C40.7915 6.15068 40.7509 6.15683 40.7103 6.15497C40.6696 6.15311 40.6297 6.1433 40.5929 6.12608C40.556 6.10886 40.5229 6.08458 40.4955 6.05462C40.4681 6.02466 40.4468 5.98961 40.433 5.95146C40.4192 5.91332 40.413 5.87284 40.4149 5.83233C40.4167 5.79181 40.4266 5.75206 40.4439 5.71534C40.4611 5.67862 40.4855 5.64565 40.5156 5.61831C40.5456 5.59097 40.5808 5.56981 40.6191 5.55602C46.4591 3.46036 52.947 2.20383 59.5154 1.69915C66.0405 1.19828 72.6493 1.4387 78.79 2.34433C80.532 2.60079 82.2587 2.93131 83.9729 3.30442C86.5457 3.86555 89.0937 4.5239 91.6387 5.17986C92.1749 5.31832 93.6194 5.84087 94.7726 6.03473C95.2562 6.1155 95.6809 6.14882 95.9474 6.0444ZM27.8572 82.4593C26.0097 82.1667 24.1189 81.5563 22.3675 80.6802C20.6161 79.8029 19.0042 78.6598 17.7335 77.275C16.5308 75.9917 15.6597 74.377 14.5376 73.0032C14.0695 72.4286 13.555 71.8989 12.9505 71.4552C12.346 71.0101 11.6734 70.7138 10.9666 70.5118C10.2537 70.307 9.50351 70.201 8.75645 70.1389C8.67489 70.1308 8.59988 70.0908 8.54783 70.0277C8.49578 69.9646 8.47094 69.8835 8.47872 69.8022C8.48651 69.7209 8.5263 69.6459 8.58939 69.5938C8.65247 69.5416 8.73373 69.5165 8.81536 69.5239C9.5996 69.6082 10.3838 69.7407 11.1309 69.9738C11.8903 70.2107 12.6126 70.5502 13.2605 71.0482C13.8866 71.5286 14.4167 72.0989 14.9034 72.7123C15.9976 74.0957 16.8498 75.7077 18.0342 76.9968C19.2864 78.327 20.8643 79.4271 22.5816 80.2485C24.2763 81.0551 26.0865 81.5946 27.9473 81.8477C27.9884 81.8527 28.028 81.8659 28.0638 81.8863C28.0997 81.9068 28.1311 81.9342 28.1561 81.967C28.1812 81.9997 28.1995 82.0372 28.2098 82.077C28.2201 82.1169 28.2224 82.1585 28.2164 82.1992C28.2104 82.24 28.1963 82.2791 28.1749 82.3144C28.1535 82.3496 28.1252 82.3802 28.0918 82.4044C28.0584 82.4286 28.0204 82.4459 27.9801 82.4553C27.9399 82.4646 27.8982 82.4659 27.8574 82.459L27.8572 82.4593Z" fill="#E3DBF9"/>
<path fill-rule="evenodd" clip-rule="evenodd" d="M78.7965 55.715C75.6539 63.5705 64.8668 76.0513 55.1754 76.0496C41.1764 76.0504 26.1909 39.3562 26.1909 39.3562C20.5326 35.4997 23.9964 30.145 26.5531 25.6553L30.448 35.2787C30.448 35.2787 47.2992 58.8686 54.5622 57.806C61.8259 56.7455 69.9901 29.2601 74.029 28.9112C78.0679 28.5624 81.9383 47.8577 78.7965 55.715Z" fill="#FB9C9A"/>
<mask id="mask0_19_616" style="mask-type:luminance" maskUnits="userSpaceOnUse" x="23" y="25" width="58" height="51">
<path d="M79.1073 55.7054C75.9856 63.5013 65.2704 75.8874 55.6436 75.8857C41.7379 75.8865 26.8523 39.4707 26.8523 39.4707C21.2318 35.6435 24.6725 30.3294 27.2121 25.8738L31.0811 35.4241C31.0811 35.4241 47.8199 58.8351 55.0345 57.7805C62.2498 56.728 70.3596 29.4512 74.3715 29.105C78.3835 28.7588 82.2282 47.9077 79.1073 55.7054Z" fill="white"/>
</mask>
<g mask="url(#mask0_19_616)">
<path fill-rule="evenodd" clip-rule="evenodd" d="M38.4535 36.3589C45.8104 26.8665 50.209 13.3339 62.5742 9.11049C71.2501 6.14689 79.0487 10.6307 83.9636 17.8019C91.6161 28.969 94.0892 44.9927 89.6501 57.8254C83.2762 76.2508 61.6939 82.4754 44.7185 75.3142C39.4583 73.0947 34.2291 69.7702 31.3144 64.7054C29.1368 60.9218 27.0806 53.4402 30.9099 49.8221C32.1729 48.6282 34.3007 49.1312 35.3832 47.7547C36.2075 46.7092 35.8032 45.3174 36.2822 44.15C37.063 42.2351 40.0213 41.8085 41.8287 42.0385L38.4535 36.3589Z" fill="url(#paint3_linear_19_616)"/>
</g>
<path fill-rule="evenodd" clip-rule="evenodd" d="M80.5607 65.9241C76.0376 60.5004 69.1421 37.1855 72.6683 30.6426C76.1945 24.0998 94.8911 17.1239 101.718 26.6665C107.717 35.0519 103.334 56.6413 99.8073 63.1842C96.767 68.8288 84.678 70.8612 80.5607 65.9241Z" fill="url(#paint4_linear_19_616)"/>
<path fill-rule="evenodd" clip-rule="evenodd" d="M82.38 36.438C82.613 35.8166 83.0812 35.3138 83.6819 35.0402C84.2825 34.7666 84.9663 34.7446 85.583 34.979L120.487 48.2572C120.793 48.3734 121.072 48.5491 121.31 48.7742C121.548 48.9993 121.739 49.2694 121.873 49.5691C122.008 49.8688 122.082 50.1922 122.092 50.5208C122.103 50.8495 122.048 51.177 121.933 51.4846L101.333 106.498C101.101 107.119 100.633 107.622 100.033 107.896C99.4323 108.17 98.7488 108.192 98.1323 107.958L63.2279 94.6796C62.6114 94.4448 62.1126 93.9728 61.8412 93.3675C61.5697 92.7622 61.5477 92.0731 61.78 91.4514L82.38 36.438Z" fill="white"/>
<path fill-rule="evenodd" clip-rule="evenodd" d="M108.392 53.4817C108.453 53.3111 108.575 53.173 108.732 53.0979C108.889 53.0228 109.068 53.0167 109.23 53.081L115.232 55.4765C115.393 55.541 115.524 55.6706 115.595 55.8368C115.666 56.0029 115.672 56.1922 115.611 56.3628L115.611 56.3633C115.55 56.5339 115.427 56.6719 115.27 56.747C115.113 56.8221 114.934 56.8282 114.773 56.7639L108.77 54.3684C108.609 54.3039 108.478 54.1743 108.407 54.0082C108.336 53.842 108.331 53.6528 108.391 53.4822L108.392 53.4817ZM109.335 50.8392C109.396 50.6686 109.518 50.5305 109.675 50.4554C109.833 50.3803 110.012 50.3742 110.173 50.4384L116.175 52.834C116.337 52.8985 116.467 53.0281 116.538 53.1943C116.609 53.3605 116.615 53.5497 116.554 53.7203V53.7208C116.493 53.8914 116.371 54.0294 116.213 54.1045C116.056 54.1796 115.877 54.1857 115.716 54.1214L109.713 51.726C109.552 51.6615 109.422 51.532 109.351 51.3658C109.28 51.1996 109.274 51.0104 109.335 50.8398L109.335 50.8392Z" fill="#E3E3FE"/>
<path fill-rule="evenodd" clip-rule="evenodd" d="M82.8339 36.2792C82.9343 36.0016 83.0862 35.7474 83.2808 35.531C83.4754 35.3147 83.709 35.1404 83.9681 35.0183C84.2273 34.8961 84.507 34.8284 84.7913 34.819C85.0756 34.8096 85.3589 34.8587 85.6249 34.9635L120.692 48.7699C120.958 48.8746 121.202 49.033 121.41 49.236C121.617 49.4389 121.784 49.6826 121.901 49.9529C122.018 50.2233 122.083 50.515 122.092 50.8116C122.101 51.1081 122.054 51.4036 121.954 51.6812V51.6817C121.854 51.9593 121.702 52.2135 121.507 52.4298C121.312 52.6462 121.079 52.8204 120.82 52.9426C120.561 53.0648 120.281 53.1325 119.997 53.1419C119.712 53.1513 119.429 53.1022 119.163 52.9973L84.0956 39.191C83.8295 39.0863 83.5857 38.9279 83.3783 38.7249C83.1709 38.5219 83.0038 38.2783 82.8866 38.0079C82.7695 37.7376 82.7045 37.4458 82.6954 37.1493C82.6864 36.8527 82.7334 36.5572 82.8339 36.2796V36.2792Z" fill="white"/>
<path fill-rule="evenodd" clip-rule="evenodd" d="M69.7077 82.278L68.19 86.4849C67.9635 87.113 67.9847 87.8095 68.249 88.4212C68.5132 89.0329 68.999 89.5098 69.5993 89.747L73.8443 91.4231L74.2397 90.3266L69.9947 88.6505C69.8348 88.5876 69.6884 88.4923 69.5637 88.3702C69.4391 88.248 69.3386 88.1014 69.2682 87.9386C69.1977 87.7759 69.1585 87.6002 69.153 87.4216C69.1474 87.243 69.1755 87.0651 69.2357 86.8978L70.7535 82.691L69.7077 82.278ZM100.739 94.5302L99.2213 98.7372C99.1612 98.9042 99.0702 99.0573 98.9535 99.1876C98.8368 99.3178 98.6967 99.4228 98.5412 99.4963C98.3857 99.5699 98.2179 99.6106 98.0473 99.6163C97.8767 99.6219 97.7067 99.5923 97.5471 99.5292L93.302 97.8531L92.9066 98.9496L97.1517 100.626C97.7521 100.863 98.4179 100.84 99.0026 100.564C99.5873 100.287 100.043 99.7791 100.27 99.1511L101.788 94.9442L100.739 94.5302ZM108.037 57.0108L107.642 58.1073L111.887 59.7833C112.046 59.8463 112.193 59.9415 112.317 60.0637C112.442 60.1858 112.542 60.3324 112.612 60.4951C112.682 60.6578 112.721 60.8334 112.726 61.0119C112.732 61.1903 112.703 61.3681 112.643 61.5351L111.125 65.7419L112.174 66.1559L113.691 61.949C113.918 61.3209 113.897 60.6244 113.632 60.0127C113.368 59.401 112.882 58.9241 112.282 58.6869L108.037 57.0108ZM88.975 49.4845L84.7299 47.8084C84.1295 47.5715 83.4637 47.5937 82.879 47.8703C82.2942 48.1468 81.8384 48.6549 81.6118 49.283L80.094 53.4899L81.1399 53.9028L82.6577 49.6959C82.7181 49.5288 82.8094 49.3758 82.9264 49.2456C83.0433 49.1154 83.1837 49.0105 83.3394 48.9371C83.4951 48.8636 83.6631 48.823 83.8338 48.8175C84.0045 48.8119 84.1746 48.8416 84.3344 48.9049L88.5793 50.5809L88.975 49.4845Z" fill="#E3E3FE"/>
<path fill-rule="evenodd" clip-rule="evenodd" d="M111.665 28.9607C118.044 32.9294 132.178 45.3916 130.141 54.8123C127.197 68.4221 113.242 82.7781 113.242 82.7781C112.707 87.4854 108.716 88.5669 107.878 88.8697C107.155 89.1304 109.987 82.5156 109.682 81.9856C108.698 80.2827 106.762 82.8597 106.313 81.1946C106.029 80.1434 108.504 78.2171 110.704 78.4629C110.704 78.4629 120.644 59.7171 117.816 51.3004C114.987 42.8836 95.096 43.5135 93.7323 27.963C93.3678 23.8072 95.0004 18.5931 111.665 28.9607Z" fill="#FB9C9A"/>
<mask id="mask1_19_616" style="mask-type:luminance" maskUnits="userSpaceOnUse" x="93" y="23" width="38" height="66">
<path d="M111.521 29.168C117.937 33.1302 132.153 45.5721 130.104 54.9774C127.143 68.565 113.107 82.8976 113.107 82.8976C112.569 87.5972 108.555 88.677 107.712 88.9792C106.985 89.2395 109.833 82.6355 109.526 82.1063C108.537 80.4062 106.59 82.979 106.138 81.3166C105.852 80.2672 108.341 78.344 110.554 78.5894C110.554 78.5894 120.552 59.8742 117.708 51.4712C114.862 43.0682 94.8557 43.697 93.4841 28.1719C93.1175 24.0229 94.7596 18.8173 111.521 29.168Z" fill="white"/>
</mask>
<g mask="url(#mask1_19_616)">
<path fill-rule="evenodd" clip-rule="evenodd" d="M104.297 68.4403C96.6838 59.152 84.4727 51.8466 83.1129 38.851C82.1585 29.7328 88.2684 23.1305 96.355 19.9382C108.948 14.9686 125.119 16.1309 136.639 23.3197C153.179 33.6418 154.435 56.0685 143.668 71.0196C140.332 75.6525 135.925 80.0086 130.338 81.7206C126.164 82.9996 118.412 83.3357 115.739 78.796C114.857 77.2987 115.822 75.3367 114.721 73.9745C113.886 72.9378 112.439 73.0216 111.408 72.2943C109.715 71.1061 109.959 68.1272 110.586 66.4166L104.297 68.4403Z" fill="url(#paint5_linear_19_616)"/>
</g>
<path fill-rule="evenodd" clip-rule="evenodd" d="M0.0227375 17.8623C0.0227375 17.8623 7.96298 15.5248 13.5692 9.4791C19.8664 15.1418 28.0659 17.8623 28.0659 17.8623V30.632C28.066 33.1259 27.4303 35.5787 26.2191 37.7588C25.0078 39.9389 23.2609 41.7742 21.1432 43.0916C20.9136 43.2361 20.682 43.3786 20.4543 43.5211C18.579 44.6878 16.4171 45.3119 14.2086 45.3241C12 45.3363 9.83131 44.7362 7.9432 43.5904C5.52541 42.1235 3.52644 40.0583 2.1391 37.594C0.751757 35.1297 0.0228672 32.3494 0.0227375 29.5214V17.8623Z" fill="url(#paint6_linear_19_616)"/>
<path fill-rule="evenodd" clip-rule="evenodd" d="M3.73656 20.6248C3.73656 20.6248 9.57374 18.8978 13.6951 14.431C18.3244 18.6147 24.3522 20.6248 24.3522 20.6248V30.0769C24.3523 31.9149 23.885 33.7228 22.9942 35.3306C22.1034 36.9383 20.8185 38.2932 19.2601 39.2678C19.0942 39.3704 18.9283 39.474 18.7639 39.5779C17.3844 40.4404 15.7921 40.902 14.1652 40.9111C12.5383 40.9201 10.9409 40.4763 9.55194 39.6292H9.55049C7.77493 38.546 6.30764 37.0246 5.28951 35.211C4.27139 33.3974 3.73662 31.3525 3.73656 29.2726V20.6248Z" fill="white"/>
<path fill-rule="evenodd" clip-rule="evenodd" d="M7.13039 30.6812L10.9879 35.8494C11.3099 36.2799 11.8011 36.522 12.3117 36.5028C12.57 36.4905 12.8214 36.4159 13.0446 36.2853C13.2677 36.1547 13.456 35.9721 13.5932 35.753L20.7976 24.6003C21.3083 23.8082 21.1261 22.7188 20.3878 22.1687C19.6495 21.6187 18.6379 21.8162 18.124 22.6083L12.1621 31.8378L9.66738 28.4956C9.10793 27.7434 8.08341 27.6221 7.38407 28.2252C6.68152 28.8283 6.57098 29.9289 7.13039 30.6812Z" fill="url(#paint7_linear_19_616)"/>
<path fill-rule="evenodd" clip-rule="evenodd" d="M29.4581 30.5322C29.2279 29.2098 28.4893 27.8581 28.0526 27.7029C25.138 26.6713 23.595 29.6358 26.5993 30.5551C28.0526 31.0002 29.5084 34.8179 29.5084 34.8179C29.5084 34.8179 29.6327 31.5463 29.4581 30.5322Z" fill="#FB9C9A"/>
<path fill-rule="evenodd" clip-rule="evenodd" d="M84.0458 6.41379C88.3429 6.41379 91.4756 9.909 90.8644 14.6534C90.4304 18.0155 85.6351 21.6306 81.7048 21.9716C78.4651 22.2523 77.1968 19.34 77.1968 14.5651C77.1968 9.79019 79.7518 6.41379 84.0458 6.41379Z" fill="url(#paint8_linear_19_616)"/>
<path fill-rule="evenodd" clip-rule="evenodd" d="M82.5858 18.8411C82.5103 18.514 82.2175 18.2239 81.9783 17.9923C81.7673 17.7886 81.547 17.591 81.2857 17.4468C81.1305 17.3549 80.9619 17.2849 80.7852 17.2393C79.7557 17.0056 79.2647 17.8297 78.4651 18.2296C78.1566 18.3841 77.8261 18.4118 77.4829 18.4234C76.5071 19.8286 78.2384 21.3666 79.5072 21.8678C80.1399 22.1184 81.7926 24.102 83.8073 21.8217C84.2638 21.3062 86.7381 21.4623 85.9637 18.842C85.7622 18.1564 86.055 17.283 86.1085 16.5772C86.1872 15.5423 86.099 14.3387 87.1693 13.7041C87.3383 13.605 87.5176 13.5226 87.7045 13.4583C87.8367 13.4122 87.9878 13.3135 88.1137 13.3697C89.0424 13.7773 87.5156 15.3821 89.8042 16.0415C89.6563 16.7577 90.3835 17.2604 91.0508 17.3555C92.0959 17.5047 93.2166 17.0763 93.9092 16.3266C94.5482 15.6339 95.3226 14.5556 95.4548 13.6611C95.6154 12.5658 95.5586 10.1895 94.4821 8.78303C93.6416 7.68485 92.4013 6.83161 90.9218 6.91723C90.9375 6.63986 90.7423 6.36307 90.5912 6.1411C90.2358 5.61954 89.7862 5.16098 89.2628 4.78631C88.4222 4.19172 87.3835 3.74905 86.3289 3.67413C84.9154 3.57368 83.4044 4.31272 82.7905 5.54234C82.5229 5.27119 82.1169 5.1841 81.7454 5.11482C80.8356 4.94509 79.9794 5.0524 79.1703 5.4939C77.4169 6.45208 76.8125 8.31997 77.5523 10.0502C77.8167 9.96964 78.1252 9.96784 78.3991 9.93038C79.0602 9.84121 76.7905 11.1681 81.3991 11.9338C82.5985 12.133 84.3771 11.2673 85.2428 12.3322C85.8094 13.027 85.4158 13.8561 85.2995 14.6198C85.1956 15.303 85.2491 16.0013 85.1137 16.68C84.9217 17.6456 84.1378 18.8286 83.0392 19.0451L82.5858 18.8411Z" fill="url(#paint9_linear_19_616)"/>
<path d="M100.411 72.813L100.752 71.8403C101.093 70.8713 101.035 69.806 100.589 68.8802C100.144 67.9543 99.3475 67.2442 98.3769 66.9069L97.6749 66.6611M85.1859 67.4823L85.5265 66.5095C85.8633 65.5404 86.5718 64.7451 87.4957 64.2991C88.4197 63.853 89.4831 63.7929 90.4514 64.1319L91.1873 64.3896M99.1109 76.5262L97.9796 79.7574C97.6423 80.7279 96.9322 81.5241 96.0063 81.9698C95.0805 82.4154 94.0152 82.4738 93.0462 82.132L92.3441 81.8862M83.8858 71.1955L82.7545 74.4266C82.4127 75.3956 82.4711 76.4609 82.9167 77.3867C83.3624 78.3126 84.1586 79.0227 85.1291 79.36L85.8566 79.6147" stroke="#E3E3FE" stroke-width="1.5" stroke-linecap="round" stroke-linejoin="round"/>
<path d="M100.744 77.0974L82.2198 70.6117" stroke="#E3E3FE" stroke-width="1.5" stroke-linecap="round" stroke-linejoin="round"/>
<defs>
<linearGradient id="paint0_linear_19_616" x1="31.6251" y1="56.4783" x2="104.414" y2="114.9" gradientUnits="userSpaceOnUse">
<stop stop-color="#DDF9DB"/>
<stop offset="0.54" stop-color="#BBFACD"/>
<stop offset="1" stop-color="#4CFC48"/>
</linearGradient>
<linearGradient id="paint1_linear_19_616" x1="56.7767" y1="51.1996" x2="79.6919" y2="88.4545" gradientUnits="userSpaceOnUse">
<stop stop-color="#E3DBF9"/>
<stop offset="0.54" stop-color="#CCBBFA"/>
<stop offset="1" stop-color="#7848FC"/>
</linearGradient>
<linearGradient id="paint2_linear_19_616" x1="147.626" y1="39.1048" x2="85.521" y2="91.4133" gradientUnits="userSpaceOnUse">
<stop stop-color="#DCF9DB"/>
<stop offset="0.56" stop-color="#C2FABD"/>
<stop offset="1" stop-color="#6CFC48"/>
</linearGradient>
<linearGradient id="paint3_linear_19_616" x1="61.5813" y1="34.5203" x2="57.6361" y2="82.5485" gradientUnits="userSpaceOnUse">
<stop stop-color="#27AA3C"/>
<stop offset="0.45" stop-color="#1D9029"/>
<stop offset="1" stop-color="#05512D"/>
</linearGradient>
<linearGradient id="paint4_linear_19_616" x1="83.9828" y1="16.1753" x2="94.2772" y2="69.7845" gradientUnits="userSpaceOnUse">
<stop stop-color="#3ED34D"/>
<stop offset="1" stop-color="#195105"/>
</linearGradient>
<linearGradient id="paint5_linear_19_616" x1="97.1547" y1="20.6164" x2="135.639" y2="61.516" gradientUnits="userSpaceOnUse">
<stop stop-color="#29B337"/>
<stop offset="0.56" stop-color="#229F2F"/>
<stop offset="1" stop-color="#0B5105"/>
</linearGradient>
<linearGradient id="paint6_linear_19_616" x1="5.74093" y1="9.83248" x2="32" y2="59.1612" gradientUnits="userSpaceOnUse">
<stop stop-color="#B1FFAA"/>
<stop offset="0.6" stop-color="#91FFCA"/>
<stop offset="0.81" stop-color="#3DF120"/>
<stop offset="1" stop-color="#41C811"/>
</linearGradient>
<linearGradient id="paint7_linear_19_616" x1="19.4978" y1="17.6025" x2="3.14946" y2="44.4886" gradientUnits="userSpaceOnUse">
<stop stop-color="#AAFFC7"/>
<stop offset="0.47" stop-color="#ACFF85"/>
<stop offset="1" stop-color="#9EFF22"/>
</linearGradient>
<linearGradient id="paint8_linear_19_616" x1="78.7269" y1="7.80314" x2="88.4973" y2="24.6564" gradientUnits="userSpaceOnUse">
<stop stop-color="#FB9C9A"/>
<stop offset="0.64" stop-color="#FC8886"/>
<stop offset="0.84" stop-color="#FD5450"/>
<stop offset="1" stop-color="#FF1712"/>
</linearGradient>
<linearGradient id="paint9_linear_19_616" x1="82.3927" y1="22.3621" x2="88.403" y2="2.22175" gradientUnits="userSpaceOnUse">
<stop/>
<stop offset="0.53" stop-color="#121212"/>
<stop offset="1" stop-color="#4D4D4D"/>
</linearGradient>
</defs>
</svg>
